<svg xmlns="http://www.w3.org/2000/svg" width="136.065" height="29.509" viewBox="0 0 136.065 29.509">
  <g id="Group_1758" data-name="Group 1758" transform="translate(-8.127 -18.741)">
    <g id="Group_1757" data-name="Group 1757" transform="translate(8.127 18.741)">
      <path id="Path_3479" data-name="Path 3479" d="M14.13,48.2A6.013,6.013,0,0,1,9.041,39L19.858,21.725a6.01,6.01,0,1,1,10.188,6.38L19.228,45.379A6,6,0,0,1,14.13,48.2Z" transform="translate(-8.127 -18.69)" fill="#fff"/>
      <path id="Path_3480" data-name="Path 3480" d="M28.345,48.25a6.011,6.011,0,0,1-5.1-9.2L34.071,21.776a6.01,6.01,0,1,1,10.442,5.952c-.083.147-.173.29-.269.429L33.44,45.43a6,6,0,0,1-5.1,2.82Z" transform="translate(-3.702 -18.741)" fill="#fff"/>
      <ellipse id="Ellipse_12" data-name="Ellipse 12" cx="6.02" cy="5.869" rx="6.02" ry="5.869" transform="translate(37.258 17.769)" fill="#fff"/>
    </g>
    <path id="Path_3481" data-name="Path 3481" d="M130.591,27.451H127.1l-2.445,6.264-2.429-6.264h-3.5l4.244,9.877-2.639,6.531h3.466ZM109.64,32.943a2.7,2.7,0,0,0,2.77,2.618,2.618,2.618,0,1,0,0-5.236A2.711,2.711,0,0,0,109.64,32.943Zm5.42,5.516V37.211a4.22,4.22,0,0,1-3.2,1.462,5.613,5.613,0,0,1-5.612-5.615c0-.038,0-.076,0-.114a5.612,5.612,0,0,1,5.5-5.727h.114a4.04,4.04,0,0,1,3.2,1.462V27.456h3.253V38.462Zm-9.742,0h-3.253V37.093a3.626,3.626,0,0,1-3.23,1.6,5.4,5.4,0,0,1-5.329-5.706,5.425,5.425,0,0,1,5.329-5.776,3.617,3.617,0,0,1,3.23,1.578V21.461h3.253Zm-3.325-5.539a2.549,2.549,0,1,0-2.547,2.662A2.564,2.564,0,0,0,101.994,32.921Zm-16.53-.283c0-1.687.871-2.241,2.026-2.241,1.108,0,1.91.732,1.91,2.193v5.87h3.276V31.884c0-3.136-1.557-4.668-4.032-4.668a3.675,3.675,0,0,0-3.182,1.837v-1.6H82.186V38.458h3.276Zm-9.932,6.009a5.555,5.555,0,0,1-5.706-5.729,5.718,5.718,0,0,1,11.435,0A5.574,5.574,0,0,1,75.532,38.647Zm0-3.2a2.51,2.51,0,1,0-2.476-2.626c0,.035,0,.07,0,.1A2.429,2.429,0,0,0,75.532,35.443ZM63.944,30.4c.967,0,1.815.754,1.815,2.193v5.87h3.253V32.2c0-3.323-1.632-5-4.244-5a3.768,3.768,0,0,0-3.3,1.957,3.561,3.561,0,0,0-3.533-1.933,3.15,3.15,0,0,0-2.875,1.815v-1.6H51.788V38.445h3.276V32.636c0-1.687.921-2.241,1.91-2.241a1.905,1.905,0,0,1,1.815,2.121v5.94h3.276V32.636c0-1.6.85-2.241,1.879-2.241Z" transform="translate(13.601 0.847)" fill="#fff" fill-rule="evenodd"/>
  </g>
</svg>
